<?xml version="1.0" encoding="utf-8"?>
<!-- Generator: Adobe Illustrator 26.3.1, SVG Export Plug-In . SVG Version: 6.00 Build 0)  -->
<svg version="1.1" id="圖層_1" xmlns="http://www.w3.org/2000/svg" xmlns:xlink="http://www.w3.org/1999/xlink" x="0px" y="0px"
	 viewBox="0 0 512 512" style="enable-background:new 0 0 512 512;" xml:space="preserve">
<style type="text/css">
	.st0{fill:#0A0909;}
	.st1{fill:#F4B223;}
	.st2{fill:#FFFFFF;}
	.st3{fill:#040000;}
	.st4{fill:none;stroke:#0A0909;stroke-width:30;stroke-linecap:round;stroke-linejoin:round;stroke-miterlimit:10;}
</style>
<path class="st0" d="M234.65,321.83H54.59c-9.97,0-18.55-7.03-20.52-16.8c-1.97-9.77,3.22-19.58,12.41-23.44l84.31-35.43h-76.2
	c-11.56,0-20.94-9.37-20.94-20.94c0-11.56,9.37-20.94,20.94-20.94h180.06c9.97,0,18.55,7.03,20.52,16.8
	c1.97,9.77-3.22,19.58-12.41,23.44l-84.31,35.43h76.2c11.56,0,20.94,9.37,20.94,20.94C255.59,312.45,246.22,321.83,234.65,321.83z"
	/>
<circle class="st1" cx="452.22" cy="251.07" r="21.51"/>
<circle class="st2" cx="452.22" cy="251.07" r="3.61"/>
<g>
	<path class="st3" d="M400.3,265.03c-26.47,0-48.01-21.54-48.01-48.01c0-26.48,21.54-48.01,48.01-48.01
		c7.71,0,13.96,6.25,13.96,13.96c0,7.71-6.25,13.96-13.96,13.96c-11.08,0-20.1,9.02-20.1,20.1s9.02,20.1,20.1,20.1
		c7.76,0,14.51-4.42,17.85-10.88l-3.28,0.88c-7.45,1.99-15.1-2.44-17.09-9.88c-1.99-7.45,2.43-15.1,9.88-17.09l21.82-5.83
		c7.37-1.97,14.98,2.36,17.04,9.71c1.18,4.21,1.78,8.58,1.78,12.99C448.31,243.49,426.77,265.03,400.3,265.03z"/>
</g>
<path class="st1" d="M456.98,321.83H230.54c-11.56,0-20.94-9.37-20.94-20.94c0-11.56,9.37-20.94,20.94-20.94h226.44
	c11.56,0,20.94,9.37,20.94,20.94C477.92,312.45,468.55,321.83,456.98,321.83z"/>
<path class="st1" d="M189.55,321.83c-7.95,0-15.55-4.55-19.07-12.26c-4.79-10.52-0.15-22.94,10.37-27.73l78.32-35.68h-69.64
	c-11.56,0-20.94-9.37-20.94-20.94c0-11.56,9.37-20.94,20.94-20.94h166.1c9.85,0,18.37,6.87,20.46,16.5
	c2.09,9.63-2.81,19.41-11.78,23.49l-166.1,75.67C195.4,321.22,192.45,321.83,189.55,321.83z"/>
<path class="st3" d="M452.22,316.76c-7.08,0-12.85-5.76-12.85-12.85v-11.04c0-3.08,2.5-5.58,5.58-5.58s5.58,2.5,5.58,5.58v11.04
	c0,0.91,0.77,1.68,1.68,1.68c0.91,0,1.68-0.77,1.68-1.68v-11.04c0-3.08,2.5-5.58,5.58-5.58c3.08,0,5.58,2.5,5.58,5.58v11.04
	C465.07,311,459.31,316.76,452.22,316.76z"/>
<path class="st0" d="M234.65,321.83H54.59c-11.56,0-20.94-9.37-20.94-20.94c0-11.56,9.37-20.94,20.94-20.94h180.06
	c11.56,0,20.94,9.37,20.94,20.94C255.59,312.45,246.22,321.83,234.65,321.83z"/>
<path class="st1" d="M214.93,316.76c-7.08,0-12.85-5.76-12.85-12.85v-11.04c0-3.08,2.5-5.58,5.58-5.58s5.58,2.5,5.58,5.58v11.04
	c0,0.91,0.77,1.68,1.68,1.68c0.91,0,1.68-0.77,1.68-1.68v-11.04c0-3.08,2.5-5.58,5.58-5.58c3.08,0,5.58,2.5,5.58,5.58v11.04
	C227.78,311,222.01,316.76,214.93,316.76z"/>
<path class="st4" d="M384.57,412.47"/>
</svg>
